<svg width="50" height="50" fill="white" xmlns="http://www.w3.org/2000/svg" xml:space="preserve" viewBox="0 0 363.3 363.3"><path d="M347.5 240.4c-7.9-9.5-16.9-18-25.6-26.2l-9.4-9c-8.8-8.6-9.1-11.9-2.1-21.7 4.8-6.7 10-13.5 15-20L339 145l.9-1.2c8.5-11.8 17.3-24 22-38.8 1.3-3.9 2.5-9.6-.4-14.4-3-4.8-8.6-6.2-12.6-6.9-2-.3-4-.4-5.8-.4h-56.4c-8.4 0-14.1 4-17.4 12.2-3 7.8-6.5 16.1-10.4 24-7.8 15.8-17.7 34-32 49.2l-.6.6c-1.6 1.8-3.6 3.9-5 3.9l-.7-.1c-3-1.2-4.9-8.3-4.8-11.7V96.8l-.1-.7c-1.4-10.5-4.6-17-16.5-19.4a5 5 0 0 0-1 0h-58c-9.5 0-14.7 3.8-19.6 9.6-1.4 1.5-4.1 4.7-2.8 8.6 1.4 4 6 4.8 7.4 5 7.3 1.4 11.4 5.9 12.5 13.7a191 191 0 0 1 .8 45.3 38 38 0 0 1-2.6 11.8c-.3.7-1.4 3.2-2.6 3.2-.3 0-1.4-.2-3.3-1.5-4.5-3-7.8-7.5-11.6-13a305 305 0 0 1-33.6-62.2c-3.5-8.6-10.1-13.5-18.6-13.6a1682 1682 0 0 0-50.5 0c-6.8.1-11.5 2.2-14 6-2.4 4-2.3 9.1.5 15.3C24.6 154.6 45 190.8 68 222.1c16.2 22 32.4 37.2 51 47.8a132.1 132.1 0 0 0 67.5 16.8l9-.3c14.9-.7 20.4-6 21.1-20.6a49 49 0 0 1 4.8-21.9c2.3-4.2 4.4-4.2 5.2-4.2 1.3 0 3 .7 4.8 1.8 3.3 2.2 6 5 8.3 7.5l6.4 7.1a438 438 0 0 0 14.3 15.5 44.4 44.4 0 0 0 36.6 14.8h51.5a15 15 0 0 0 12.2-7.7c3.2-5.7 3.1-13-.2-19.5-3.8-7.3-8.7-13.6-13-18.8z"/></svg>